<svg width="16" height="16" viewBox="0 0 16 16" fill="none" xmlns="http://www.w3.org/2000/svg">
<g clip-path="url(#clip0_479_1930)">
<path d="M15.2491 7.53384C15.1909 7.38365 15.1035 7.24634 14.9921 7.12996L8.87218 1.00996C8.75805 0.895837 8.62255 0.805337 8.47337 0.743587C8.3243 0.681837 8.16456 0.650024 8.00312 0.650024C7.67718 0.650024 7.36455 0.779524 7.13412 1.00996C7.01999 1.12409 6.92943 1.25959 6.86762 1.40871C6.80593 1.55784 6.77412 1.71765 6.77412 1.87902C6.77412 2.20496 6.90362 2.51759 7.13412 2.74802L11.1732 6.77496H1.88318C1.55855 6.77496 1.24718 6.90396 1.01768 7.13346C0.788117 7.36296 0.65918 7.6744 0.65918 7.99896C0.65918 8.32359 0.788117 8.63496 1.01768 8.86446C1.24718 9.09396 1.55855 9.22296 1.88318 9.22296H11.1732L7.13405 13.2499C7.01937 13.3637 6.92831 13.4991 6.86618 13.6482C6.80399 13.7974 6.77205 13.9574 6.77205 14.119C6.77205 14.2805 6.80399 14.4405 6.86618 14.5897C6.92831 14.7388 7.01937 14.8742 7.13405 14.988C7.24793 15.1027 7.3833 15.1937 7.53237 15.2559C7.68155 15.3181 7.84156 15.35 8.00312 15.35C8.16468 15.35 8.32468 15.3181 8.47387 15.2559C8.62293 15.1937 8.7583 15.1027 8.87218 14.988L14.9921 8.86802C15.1035 8.75165 15.1909 8.6144 15.2492 8.46409C15.3716 8.16609 15.3715 7.83184 15.2491 7.53384Z" fill="currentColor"/>
</g>
<defs>
<clipPath id="clip0_479_1930">
<rect width="16" height="16" fill="currentColor"/>
</clipPath>
</defs>
</svg>
