<svg width="40" height="40" viewBox="0 0 40 40" fill="none" xmlns="http://www.w3.org/2000/svg">
<rect width="40" height="40" rx="20" fill="#605FE0"/>
<path d="M11 19C10.4477 19 10 19.4477 10 20C10 20.5523 10.4477 21 11 21V19ZM29.7071 20.7071C30.0976 20.3166 30.0976 19.6834 29.7071 19.2929L23.3431 12.9289C22.9526 12.5384 22.3195 12.5384 21.9289 12.9289C21.5384 13.3195 21.5384 13.9526 21.9289 14.3431L27.5858 20L21.9289 25.6569C21.5384 26.0474 21.5384 26.6805 21.9289 27.0711C22.3195 27.4616 22.9526 27.4616 23.3431 27.0711L29.7071 20.7071ZM11 21L29 21V19L11 19V21Z" fill="#FBFBFB"/>
</svg>
