<svg width="50" height="50" viewBox="0 0 50 50" fill="none" xmlns="http://www.w3.org/2000/svg">
<rect width="50" height="50" rx="25" fill="currentColor"/>
<path d="M34.8668 16.0328C34.6976 15.6258 34.3741 15.3023 33.9672 15.1332C33.7669 15.0479 33.5519 15.0026 33.3341 15H16.6755C16.2337 15 15.8099 15.1755 15.4975 15.4879C15.1852 15.8003 15.0097 16.2241 15.0097 16.6659C15.0097 17.1077 15.1852 17.5314 15.4976 17.8438C15.81 18.1562 16.2337 18.3317 16.6755 18.3317H29.3194L15.4928 32.1418C15.3366 32.2966 15.2127 32.4809 15.1281 32.6838C15.0435 32.8868 15 33.1046 15 33.3245C15 33.5444 15.0435 33.7621 15.1281 33.9651C15.2127 34.168 15.3366 34.3523 15.4928 34.5072C15.6476 34.6634 15.8319 34.7872 16.0349 34.8719C16.2378 34.9565 16.4556 35 16.6755 35C16.8954 35 17.1132 34.9565 17.3162 34.8719C17.5192 34.7872 17.7034 34.6634 17.8582 34.5072L31.6683 20.6806V33.3245C31.6683 33.7662 31.8439 34.1901 32.1562 34.5024C32.4685 34.8147 32.8923 34.9903 33.3341 34.9903C33.7759 34.9903 34.1997 34.8148 34.5121 34.5024C34.8244 34.19 35 33.7662 35 33.3245V16.6659C34.9974 16.4481 34.952 16.2331 34.8668 16.0328Z" fill="#0C0E00"/>
</svg>
