<svg width="62" height="62" viewBox="0 0 62 62" fill="none" xmlns="http://www.w3.org/2000/svg">
<path d="M15.6716 8.84118C17.678 10.3689 19.785 14.0504 22.4202 14.0573C24.1878 14.0619 25.8693 13.044 26.3052 11.2713C26.5053 10.4574 26.4042 9.50919 26.4042 8.67261L26.4003 4.93457C27.2201 5.00399 28.0602 4.96922 28.8826 4.9692L33.079 4.96829C33.9249 4.96802 34.7792 4.94348 35.6237 4.99256C35.6474 6.43542 35.4314 10.0523 35.703 11.292C36.1804 13.4709 38.9527 14.6471 40.934 13.7528C41.8908 13.3208 44.404 10.7286 45.2441 9.87888C45.5744 9.54472 45.8861 9.15793 46.2542 8.86636L46.2897 8.83861C47.1955 9.53951 48.0385 10.569 48.8629 11.3896L51.5166 14.0204C52.0358 14.54 52.5889 15.0559 53.0461 15.6306C51.6747 16.9201 47.9134 20.216 47.7685 22.0506C47.6317 23.7824 48.6955 25.5399 50.4101 26C51.0987 26.1849 51.8653 26.0968 52.5727 26.0958L55.1416 26.0941C55.7346 26.0941 56.3282 26.0823 56.9202 26.1241C56.8548 29.0485 56.7742 32.7563 56.9489 35.655C55.1541 35.6316 53.35 35.5982 51.555 35.6356C48.7777 35.6935 46.7717 38.5247 48.1208 40.9519C48.7614 42.1046 51.8076 45.0845 53.0298 46.2408C52.6556 46.6473 52.2226 47.0063 51.8251 47.3908C49.9454 49.2085 48.1358 51.0928 46.3201 52.9736C45.4782 51.8722 42.0613 48.5539 41.2295 48.1262C39.3144 47.1416 36.2448 48.1129 35.7259 50.3187C35.5573 51.0356 35.6282 51.8242 35.628 52.5565L35.6509 56.4873C35.6509 56.5816 35.6663 56.6323 35.5991 56.6993C32.5357 56.6493 29.465 56.6915 26.4007 56.6918L26.4052 53.0105C26.4059 51.4442 26.6371 49.825 25.2807 48.702C24.034 47.6698 22.0539 47.3614 20.6434 48.2398C19.6489 48.8592 16.5601 51.9324 15.7244 52.9542C13.5663 50.6067 11.16 48.5143 9.02123 46.2154C9.7175 45.5954 10.3283 44.8363 10.9855 44.1709C11.8291 43.3166 13.2536 42.0492 13.8394 41.0402C14.9381 39.1477 13.8172 36.3155 11.6837 35.745C10.9335 35.5445 9.69011 35.6312 8.88774 35.6315L5.02734 35.6352C5.25539 32.6748 5.02874 29.102 5.06241 26.0767C5.26103 26.0861 5.45984 26.0928 5.6587 26.0941L8.67682 26.0955C9.55607 26.0966 10.8361 26.1904 11.6586 25.9616C13.8363 25.3555 14.9592 22.5424 13.8094 20.5957C13.0447 19.3007 10.1087 16.6782 8.97952 15.5676C9.63884 14.7448 10.6233 13.8538 11.3813 13.0936L14.5697 9.94455C14.9404 9.58008 15.296 9.20082 15.6716 8.84118ZM30.4768 16.5739C30.0325 16.5887 29.3733 16.5355 28.9741 16.7461C28.7528 17.035 28.4295 20.858 28.4204 21.619C27.6434 21.7622 26.8992 22.1039 26.1288 22.2874C25.222 21.5269 23.2155 20.0179 22.1302 19.5096C21.32 20.1327 20.1709 21.2513 19.5522 22.0676C20.1163 23.0792 21.7937 25.3457 22.5991 26.0781C22.0279 26.8221 21.9798 27.5972 21.58 28.3585L18.8262 28.5406C18.0335 28.5965 16.988 28.5485 16.3279 29.0718C16.2422 29.4452 16.2125 32.3828 16.3538 32.6443C16.5911 33.083 17.8503 33.0716 18.2791 33.1122L20.4209 33.3225C20.8074 33.3615 21.2109 33.3826 21.5907 33.4654C21.9527 34.1379 22.1704 34.9019 22.5014 35.5957C21.5705 36.8698 20.1834 38.3068 19.4842 39.6986C19.9469 40.2646 21.5467 41.8556 22.0772 42.1877C23.5694 41.5374 24.8046 40.3783 26.1572 39.4925C26.8408 39.7706 27.7111 40.1552 28.4193 40.3274C28.4523 41.2659 28.691 44.2409 28.9666 45.0572C29.7563 45.3262 30.8246 45.2025 31.6632 45.2181C32.1092 45.2131 32.5564 45.2143 33.0015 45.1859C33.3084 43.6832 33.3387 41.8515 33.5592 40.2865C34.2828 40.0327 35.0765 39.8798 35.7502 39.5093C37.0223 40.3266 38.5097 41.5698 39.8078 42.2311C40.3403 41.9009 42.0569 40.1877 42.4775 39.6443C41.5407 38.0889 40.4025 36.9081 39.4186 35.4771C39.7536 34.8471 40.1124 34.176 40.2986 33.4843C41.3933 33.4058 44.6859 33.2152 45.5307 32.8212C45.8005 32.2242 45.8128 29.4543 45.6334 29.0961C45.3923 28.6146 41.0447 28.4089 40.3167 28.3874C40.0683 27.5725 39.6762 26.8081 39.4062 26.0009C40.4145 24.7423 41.6385 23.5259 42.4438 22.1216C41.9117 21.4729 40.5906 20.0309 39.889 19.5373C38.6445 20.0281 36.764 21.4778 35.6783 22.3199C35.1561 22.0851 34.1685 21.7363 33.6032 21.5626C33.4188 20.313 33.3337 17.7647 33.0314 16.721C32.2349 16.4922 31.2997 16.5714 30.4768 16.5739Z" fill="#CAFE00"/>
<path d="M31.5228 35.9934C30.0485 36.0631 28.7217 35.7596 27.564 34.8021C24.204 32.0236 25.8994 26.2553 30.5924 25.8363C33.2256 25.6054 35.7833 27.6278 36.1053 30.257C36.4541 33.105 34.3394 35.6739 31.5228 35.9934Z" fill="#CAFE00"/>
</svg>
