<svg width="191" height="346" viewBox="0 0 191 346" fill="none" xmlns="http://www.w3.org/2000/svg">
<g clip-path="url(#clip0_467_6654)">
<path d="M250.652 65.0027L240.32 75.7607L240.319 75.7614C239.715 76.3896 239.107 77.0586 238.478 77.7507L238.466 77.7645C237.836 78.4577 237.187 79.1725 236.518 79.8681C235.184 81.2558 233.735 82.6082 232.118 83.63C225.037 88.1033 216.333 86.0659 210.648 80.5655C206.274 76.334 205.373 69.5795 205.261 62.872C205.221 60.4964 205.281 58.0648 205.34 55.705C205.365 54.7093 205.389 53.7264 205.406 52.7659C205.456 49.851 205.433 47.1303 205.144 44.7503C204.18 44.7598 203.233 44.7867 202.277 44.8139C201.323 44.841 200.359 44.8684 199.357 44.8791C199.357 44.8791 199.357 44.8791 199.357 44.8791L180.196 45.1266C180.195 45.1266 180.193 45.1266 180.192 45.1266C178.939 45.1524 177.623 45.1588 176.283 45.1652C172.958 45.1812 169.484 45.198 166.461 45.5142C166.507 46.8042 166.58 48.3628 166.661 50.0944C166.678 50.4617 166.696 50.8368 166.714 51.2187C166.836 53.8442 166.966 56.7825 167.044 59.707C167.198 65.5036 167.154 71.4049 166.376 74.6858C165.177 79.7429 161.422 83.6554 156.895 85.6979C152.367 87.7405 146.955 87.9635 142.38 85.4947L142.38 85.4946C140.65 84.5611 138.85 83.0278 137.183 81.4539C136.237 80.5597 135.262 79.5811 134.361 78.6766C133.714 78.0269 133.105 77.4155 132.572 76.901L123.273 67.9432L123.269 67.9393C122.897 67.5767 122.532 67.2087 122.172 66.8381C119.166 69.921 116.05 73.2807 112.883 76.6969C107.044 82.9938 101.027 89.4828 95.184 94.7843L106.318 105.48L106.319 105.481C106.849 105.991 107.455 106.55 108.107 107.151C108.204 107.24 108.301 107.33 108.4 107.421C109.159 108.121 109.965 108.869 110.749 109.634C112.3 111.147 113.833 112.789 114.764 114.329C117.401 118.696 117.353 124.072 115.51 128.646C113.667 133.219 109.972 137.137 105.118 138.525C102.59 139.248 99.2446 139.512 95.9592 139.621C94.3051 139.675 92.6433 139.69 91.0814 139.7C90.8594 139.702 90.6396 139.703 90.4222 139.704C89.1044 139.712 87.8748 139.719 86.7834 139.747L86.7579 138.747L86.7833 139.747C85.2736 139.785 83.7497 139.885 82.1988 139.986C81.7199 140.017 81.2385 140.049 80.7542 140.079C79.0559 140.183 77.3341 140.267 75.6234 140.247C75.5514 146.396 75.7661 152.581 75.9825 158.817L76.0041 159.439C76.226 165.843 76.4396 172.298 76.3301 178.771C79.4901 178.49 84.8671 178.297 90.1414 178.269C93.1382 178.254 96.1196 178.292 98.6647 178.399C101.188 178.506 103.348 178.684 104.665 178.963C112.115 180.546 117.554 187.786 118.374 195.011C118.833 199.06 117.556 202.249 115.6 205.008C114.163 207.035 112.309 208.889 110.52 210.677C109.929 211.269 109.344 211.853 108.784 212.434L108.784 212.435L98.5441 223.048C101.254 225.653 103.978 228.251 106.704 230.852C113.039 236.897 119.387 242.952 125.601 249.117L137.115 237.014L137.12 237.009C137.578 236.533 138.046 236.026 138.525 235.505C140.222 233.663 142.074 231.653 144.238 230.255C148.672 227.391 154.167 227.671 158.852 229.722C163.532 231.772 167.597 235.667 169.196 240.341C169.565 241.419 169.857 243.523 170.091 246.035C170.329 248.591 170.517 251.695 170.642 254.857C170.864 260.446 170.895 266.301 170.658 269.668C171.007 269.655 171.357 269.642 171.707 269.629C182.153 269.243 192.612 268.857 203.089 268.831C204.012 268.829 204.903 268.852 205.778 268.875C206.924 268.905 208.044 268.935 209.173 268.905C209.012 265.195 208.827 259.396 208.828 253.776C208.829 250.698 208.885 247.664 209.033 245.05C209.18 242.459 209.42 240.208 209.809 238.738C211.437 232.593 216.167 228.781 221.607 227.589C227.032 226.399 233.197 227.8 237.812 232.061C242.775 236.642 247.597 241.412 252.389 246.152C252.807 246.565 253.224 246.979 253.642 247.392C261.466 238.323 271.998 227.813 280.501 219.363C279.32 218.109 278.073 216.917 276.804 215.704C276.471 215.386 276.138 215.067 275.803 214.745L250.652 65.0027ZM250.652 65.0027C252.238 66.7244 253.963 68.3503 255.647 69.9371C256.284 70.5379 256.916 71.133 257.532 71.7256L257.532 71.7258L270.47 84.1724L270.47 84.1725C271.127 84.8046 271.786 85.4295 272.443 86.0522C274.19 87.7095 275.922 89.3515 277.561 91.073C276.328 92.3581 274.679 93.9927 272.864 95.7926C271.467 97.1778 269.971 98.661 268.489 100.158C264.787 103.901 261.132 107.773 259.639 110.206C256.943 114.597 256.991 119.935 258.816 124.529C260.639 129.12 264.284 133.102 268.979 134.775L269.315 133.833L268.979 134.775C270.176 135.202 272.056 135.456 274.177 135.616C276.331 135.778 278.842 135.849 281.366 135.868C285.702 135.902 290.119 135.784 292.893 135.71C293.348 135.698 293.759 135.687 294.118 135.678L294.093 134.679L294.118 135.678C294.771 135.662 295.454 135.622 296.12 135.584C296.489 135.562 296.852 135.541 297.203 135.524C298.002 135.486 298.773 135.468 299.518 135.506C299.772 137.635 299.822 139.927 299.812 142.27C299.808 143.184 299.794 144.111 299.781 145.038C299.756 146.753 299.731 148.469 299.766 150.093L299.766 150.095L300.141 166.072C300.141 166.073 300.141 166.073 300.141 166.074C300.153 166.704 300.169 167.332 300.185 167.958C300.243 170.185 300.299 172.384 300.157 174.541C299.61 174.531 299.016 174.52 298.382 174.507C294.208 174.426 288.29 174.31 282.555 174.627C278.988 174.825 275.454 175.191 272.423 175.846C269.428 176.494 266.774 177.454 265.101 178.939C259.233 184.145 257.131 193.239 261.334 200.213C262.186 201.628 263.307 202.852 264.458 203.966C265.034 204.523 265.628 205.062 266.204 205.584L266.275 205.648C266.83 206.151 267.368 206.639 267.88 207.13L275.803 214.745L250.652 65.0027ZM229.403 110.783L229.392 110.773L229.381 110.763C229.103 110.513 228.808 110.229 228.483 109.918C228.411 109.849 228.338 109.779 228.264 109.708C227.859 109.32 227.418 108.904 226.958 108.508C226.061 107.735 224.992 106.948 223.846 106.617L223.635 106.557L223.418 106.59C223.143 106.631 222.878 106.759 222.691 106.857C222.476 106.971 222.233 107.12 221.975 107.291C221.456 107.633 220.817 108.101 220.105 108.649C218.678 109.747 216.906 111.206 215.12 112.723C212.019 115.356 208.825 118.205 207.272 119.688C205.997 118.91 204.658 118.254 203.35 117.631C203.174 117.547 202.999 117.464 202.825 117.381C201.605 116.801 200.423 116.239 199.297 115.604C199.007 113.06 198.468 109.38 197.786 105.729C197.061 101.847 196.162 97.9203 195.208 95.4345L194.99 94.8661L194.384 94.7989C189.964 94.3078 183.013 94.3451 178.583 95.0418L177.938 95.1432L177.772 95.7748C177.123 98.2372 176.413 102.479 175.903 106.664C175.453 110.362 175.149 114.111 175.198 116.605C173.457 116.984 172.001 117.647 170.649 118.331C170.322 118.497 170.004 118.662 169.69 118.824C168.634 119.372 167.635 119.89 166.532 120.303L157.941 113.064L157.938 113.061C157.547 112.734 157.126 112.365 156.683 111.977C155.735 111.147 154.688 110.229 153.615 109.446C152.016 108.278 150.174 107.257 148.116 107.059L147.767 107.025L147.473 107.217C147.23 107.376 146.89 107.663 146.522 107.992C146.137 108.337 145.669 108.775 145.152 109.272C144.118 110.268 142.869 111.521 141.654 112.782C140.44 114.041 139.252 115.318 138.342 116.363C137.888 116.884 137.494 117.357 137.198 117.748C137.051 117.942 136.919 118.127 136.814 118.295C136.722 118.441 136.601 118.651 136.538 118.876L136.538 118.876C136.3 119.735 136.557 120.623 136.896 121.353C137.248 122.111 137.773 122.878 138.322 123.582C139.057 124.525 139.955 125.495 140.606 126.198C140.894 126.508 141.133 126.767 141.289 126.948C141.289 126.948 141.29 126.949 141.29 126.949L147.264 133.947C147.264 133.947 147.264 133.947 147.264 133.947C147.533 134.263 147.801 134.572 148.065 134.876C148.797 135.718 149.502 136.529 150.115 137.388C149.705 138.744 149.163 140.089 148.588 141.47C148.511 141.656 148.433 141.843 148.354 142.031C147.869 143.191 147.371 144.382 146.943 145.593C144.923 145.927 142.755 146.19 140.516 146.462C139.259 146.614 137.979 146.77 136.69 146.942C132.929 147.444 129.136 148.087 125.89 149.231L125.279 149.447L125.226 150.094C125.095 151.712 125.086 154.952 125.189 158.085C125.291 161.184 125.505 164.36 125.861 165.783L125.989 166.294L126.483 166.477C129.851 167.727 133.381 168.367 136.878 168.856C138.02 169.015 139.152 169.158 140.274 169.3C142.449 169.574 144.589 169.844 146.703 170.224C146.845 170.546 146.99 170.88 147.14 171.222C148.17 173.582 149.371 176.331 150.661 178.512C149.202 180.18 146.806 183.064 144.523 185.977C143.241 187.614 141.988 189.269 140.953 190.728C139.932 192.17 139.084 193.476 138.65 194.397L138.44 194.844L138.666 195.282C139.56 197.015 140.978 198.596 142.433 200.024C143.141 200.719 143.875 201.394 144.577 202.04L144.647 202.105C145.375 202.775 146.065 203.41 146.683 204.027L146.693 204.038L146.704 204.048C146.944 204.274 147.185 204.502 147.427 204.731C148.572 205.813 149.741 206.918 150.964 207.954L151.548 208.448L152.177 208.015C154.931 206.118 157.702 203.764 160.425 201.389C160.912 200.964 161.397 200.539 161.88 200.115C163.95 198.3 165.989 196.513 168 194.911C168.756 195.273 169.5 195.659 170.262 196.054C170.788 196.326 171.322 196.603 171.874 196.88C173.212 197.55 174.611 198.191 176.083 198.645C176.585 200.845 177.021 203.26 177.469 205.741C177.628 206.62 177.788 207.507 177.953 208.396C178.62 211.98 179.365 215.58 180.412 218.603L180.596 219.135L181.147 219.253C181.896 219.414 183.115 219.509 184.499 219.563C185.906 219.619 187.556 219.635 189.21 219.619C192.493 219.589 195.876 219.436 197.405 219.211L198.083 219.112L198.235 218.444C199.113 214.594 199.548 210.896 199.915 207.271C199.978 206.646 200.039 206.023 200.1 205.402C200.375 202.61 200.645 199.858 201.084 197.063C203.591 196.242 206.303 195.325 208.714 193.985C208.914 194.153 209.129 194.333 209.357 194.525C211.313 196.165 214.243 198.623 217.186 200.937C218.994 202.36 220.819 203.737 222.437 204.845C224.026 205.932 225.504 206.822 226.59 207.194L226.94 207.314L227.285 207.176C228.106 206.848 229.224 206.017 230.361 205.057C231.537 204.064 232.85 202.832 234.09 201.589C235.331 200.345 236.511 199.076 237.418 198.008C237.871 197.475 238.265 196.981 238.567 196.559C238.844 196.171 239.119 195.742 239.236 195.367C239.36 194.97 239.301 194.574 239.226 194.282C239.146 193.969 239.011 193.642 238.851 193.316C238.528 192.663 238.042 191.896 237.462 191.073C236.297 189.421 234.67 187.425 232.971 185.449C229.97 181.959 226.691 178.469 225.204 176.923C225.913 175.452 226.515 173.944 227.096 172.464C227.15 172.327 227.204 172.19 227.258 172.053C227.803 170.662 228.337 169.3 228.942 167.978C230.825 167.745 232.726 167.567 234.655 167.387C236.049 167.257 237.458 167.125 238.885 166.97C242.436 166.585 246.012 166.063 249.421 165.069L250.083 164.875L250.138 164.188C250.282 162.368 250.406 159.355 250.405 156.345C250.405 153.358 250.284 150.279 249.914 148.373L249.812 147.844L249.313 147.639C246.552 146.502 242.606 145.665 238.681 145.036C234.995 144.445 231.253 144.025 228.395 143.718C227.474 141.548 225.871 138.342 224.73 136.233C225.88 134.672 227.464 132.721 229.143 130.654C229.753 129.903 230.375 129.137 230.993 128.368C233.463 125.299 235.898 122.164 237.034 120.004L237.292 119.515L237.015 119.037C235.502 116.424 233.058 114.17 230.884 112.165C230.37 111.691 229.871 111.231 229.403 110.783Z" stroke="#605FE0" stroke-width="2"/>
<path d="M166.647 158.936L166.647 158.936C164.638 141.324 185.922 129.085 200.96 141.176C209.352 147.946 211.142 161.16 204.667 169.778C197.645 179.122 184.16 180.715 174.956 173.692C170.353 169.655 167.339 165.002 166.647 158.936Z" stroke="#605FE0" stroke-width="2"/>
</g>
<defs>
<clipPath id="clip0_467_6654">
<rect width="265.248" height="265.248" fill="white" transform="translate(183.936 -30) rotate(43.9037)"/>
</clipPath>
</defs>
</svg>
