<svg width="1280" height="987" viewBox="0 0 1280 987" fill="none" xmlns="http://www.w3.org/2000/svg">
<path fill-rule="evenodd" clip-rule="evenodd" d="M1280 32C1280 20.7989 1280 15.1984 1277.82 10.9202C1275.9 7.15695 1272.84 4.09734 1269.08 2.17987C1264.8 0 1259.2 0 1248 0H32C20.7989 0 15.1984 0 10.9202 2.17987C7.15695 4.09734 4.09734 7.15695 2.17987 10.9202C0 15.1984 0 20.799 0 32V567C0 578.201 0 583.802 2.17987 588.08C4.09734 591.843 7.15695 594.903 10.9202 596.82C15.1984 599 20.799 599 32 599H620C631.201 599 636.802 599 641.08 601.18C644.843 603.097 647.903 606.157 649.82 609.92C652 614.198 652 619.799 652 631V955C652 966.201 652 971.802 654.18 976.08C656.097 979.843 659.157 982.903 662.92 984.82C667.198 987 672.799 987 684 987H1248C1259.2 987 1264.8 987 1269.08 984.82C1272.84 982.903 1275.9 979.843 1277.82 976.08C1280 971.802 1280 966.201 1280 955V599V556V32Z" fill="url(#paint0_radial_467_6597)"/>
<defs>
<radialGradient id="paint0_radial_467_6597" cx="0" cy="0" r="1" gradientUnits="userSpaceOnUse" gradientTransform="translate(640 493.5) rotate(90) scale(493.5 640)">
<stop stop-color="#060534"/>
<stop offset="1" stop-color="#01010A"/>
</radialGradient>
</defs>
</svg>
