<svg width="1280" height="1088" viewBox="0 0 1280 1088" fill="none" xmlns="http://www.w3.org/2000/svg">
<path fill-rule="evenodd" clip-rule="evenodd" d="M628 32C628 20.799 628 15.1984 625.82 10.9202C623.903 7.15695 620.843 4.09734 617.08 2.17987C612.802 0 607.201 0 596 0H32C20.7989 0 15.1984 0 10.9202 2.17987C7.15695 4.09734 4.09734 7.15695 2.17987 10.9202C0 15.1984 0 20.799 0 32V1056C0 1067.2 0 1072.8 2.17987 1077.08C4.09734 1080.84 7.15695 1083.9 10.9202 1085.82C15.1984 1088 20.7989 1088 32 1088H1248C1259.2 1088 1264.8 1088 1269.08 1085.82C1272.84 1083.9 1275.9 1080.84 1277.82 1077.08C1280 1072.8 1280 1067.2 1280 1056V360C1280 348.799 1280 343.198 1277.82 338.92C1275.9 335.157 1272.84 332.097 1269.08 330.18C1264.8 328 1259.2 328 1248 328H660C648.799 328 643.198 328 638.92 325.82C635.157 323.903 632.097 320.843 630.18 317.08C628 312.802 628 307.201 628 296V32Z" fill="#CAFE00"/>
</svg>
