<svg width="33" height="33" viewBox="0 0 33 33" fill="none" xmlns="http://www.w3.org/2000/svg">
<g clip-path="url(#clip0_2076_1491)">
<path d="M16.7601 0.820313C13.6589 0.820313 10.6273 1.73991 8.04874 3.46285C5.4702 5.18578 3.46047 7.63471 2.27367 10.4998C1.08687 13.365 0.776336 16.5176 1.3814 19.5592C1.98647 22.6008 3.4798 25.3947 5.6726 27.5878C7.86554 29.7806 10.6594 31.274 13.701 31.8791C16.7426 32.484 19.8954 32.1735 22.7606 30.9867C25.6257 29.7999 28.0746 27.7902 29.7975 25.2116C31.5205 22.6331 32.4401 19.6015 32.4401 16.5003C32.4402 14.4412 32.0347 12.402 31.2469 10.4996C30.4589 8.59711 29.3039 6.86858 27.8478 5.41245C26.3918 3.95645 24.6633 2.80151 22.7609 2.01351C20.8583 1.22565 18.8193 0.820179 16.7601 0.820313ZM21.7455 24.5794C21.6869 24.7256 21.5975 24.8578 21.4837 24.9668C21.3697 25.0758 21.2338 25.1592 21.085 25.2115C20.9362 25.2636 20.7781 25.2835 20.6209 25.2695C20.4639 25.2555 20.3117 25.2082 20.1743 25.1306L15.9179 21.823L13.1858 24.3434C13.1225 24.3903 13.0483 24.4204 12.9702 24.4311C12.8921 24.4418 12.8126 24.4327 12.739 24.4044L13.2627 19.7186L13.2794 19.7319L13.2902 19.6395C13.2902 19.6395 20.9499 12.6658 21.2619 12.3686C21.5777 12.0723 21.4735 12.0079 21.4735 12.0079C21.4915 11.6464 20.9066 12.0079 20.9066 12.0079L10.7578 18.5371L6.53127 17.0976C6.53127 17.0976 5.88207 16.8648 5.821 16.3528C5.7566 15.8448 6.55247 15.5688 6.55247 15.5688L23.3566 8.89311C23.3566 8.89311 24.7381 8.27765 24.7381 9.29685L21.7455 24.5794Z" fill="#27A7E7"/>
</g>
<defs>
<clipPath id="clip0_2076_1491">
<rect width="32" height="32" fill="white" transform="translate(0.759766 0.5)"/>
</clipPath>
</defs>
</svg>
