<svg width="33" height="35" viewBox="0 0 33 35" fill="none" xmlns="http://www.w3.org/2000/svg">
<path d="M11.4357 0.0614471C10.5875 0.181072 9.26327 0.548485 8.467 0.873177C6.8485 1.53111 5.76662 2.26593 4.41643 3.59034C2.58155 5.41032 1.53429 7.32429 0.989017 9.87056C0.833226 10.5968 0.807261 11.0924 0.77264 14.2368C0.729365 18.0904 0.781296 19.0645 1.14481 20.4743C1.99301 23.7896 4.12215 26.5409 7.10815 28.1986L7.84383 28.6087V31.6335C7.84383 34.5471 7.85249 34.6668 8.01694 34.8291C8.12945 34.9402 8.30255 35 8.50162 35C8.80455 35 8.95168 34.8633 11.4184 32.3939L14.0062 29.7878H17.425C21.138 29.7878 22.0122 29.728 23.4576 29.3606C27.8111 28.2755 31.2558 24.8406 32.3637 20.4999C32.7272 19.0816 32.7964 18.0135 32.7445 14.1855C32.7099 11.0924 32.6839 10.5968 32.5281 9.86201C32.2771 8.68287 31.879 7.58063 31.3337 6.55528C30.7105 5.39323 30.2085 4.70967 29.2738 3.74414C27.5255 1.95833 25.5521 0.839001 23.0854 0.240883L22.168 0.0187263L17.0615 0.00163651C14.2572 -0.00690842 11.7213 0.0187263 11.4357 0.0614471ZM19.7272 4.966C23.0421 5.53849 25.6646 8.00785 26.4176 11.2889C26.5994 12.1007 26.6253 13.69 26.4609 14.4333C26.2878 15.2109 25.8897 15.4758 25.4915 15.0827C25.3444 14.9375 25.3184 14.8349 25.3617 14.553C25.5088 13.4849 25.5175 12.3741 25.3877 11.7076C24.7385 8.34109 21.8477 5.94862 18.429 5.94862C17.6241 5.94862 17.3384 5.84609 17.2606 5.53849C17.2 5.30779 17.3384 5.01727 17.5548 4.92328C17.8578 4.80366 18.905 4.82075 19.7272 4.966ZM11.3491 6.96542C11.7473 7.14486 14.4909 9.86201 14.7333 10.3149C14.941 10.7079 14.9323 11.3744 14.7073 11.8016C14.4736 12.2459 14.3005 12.3912 13.7206 12.6475C13.158 12.8953 12.6301 13.4422 12.5522 13.8694C12.3012 15.1938 13.8418 17.5179 15.8238 18.8252C16.7326 19.4233 17.3558 19.6455 17.9962 19.6028C18.8185 19.543 19.1993 19.2012 19.8398 17.928C19.8657 17.8682 20.0561 17.723 20.2639 17.6119C20.6793 17.3641 21.3544 17.3214 21.8045 17.5179C21.9603 17.5777 22.7911 18.3382 23.648 19.2012C24.9982 20.5512 25.2405 20.8332 25.3271 21.1579C25.4483 21.6022 25.405 22.038 25.2059 22.4566C25.0068 22.8582 22.9556 24.8406 22.5142 25.0456C22.0208 25.2849 20.8351 25.3191 20.0302 25.1311C15.9277 24.1314 10.5183 19.4062 8.06887 14.6726C7.25529 13.1004 6.80523 11.4257 6.93505 10.4516C7.04757 9.62277 7.25529 9.29808 8.43238 8.15311C9.03823 7.56354 9.65274 7.01669 9.79123 6.93979C10.1461 6.76035 10.925 6.7689 11.3491 6.96542ZM19.8225 7.36701C21.3457 7.75152 22.7652 8.85376 23.5095 10.238C23.9855 11.1181 24.1327 11.6393 24.176 12.7073C24.2192 13.6387 24.2106 13.7156 24.0375 13.8865C23.8124 14.1086 23.5009 14.1172 23.3018 13.9036C23.1806 13.7669 23.1373 13.5532 23.12 12.8953C23.0768 11.2633 22.3411 9.92183 21.0255 9.05883C20.2466 8.54616 19.5455 8.33255 18.4896 8.28128C17.4942 8.23001 17.2779 8.13602 17.2779 7.74297C17.2779 7.47809 17.4856 7.26448 17.7972 7.20467C18.1347 7.13631 19.2599 7.22176 19.8225 7.36701ZM19.8311 9.84493C20.8957 10.3405 21.7179 11.4684 21.8304 12.5963C21.8997 13.2115 21.7525 13.4678 21.3371 13.4678C20.939 13.4678 20.8091 13.2798 20.7053 12.5108C20.6447 12.0665 20.4283 11.6564 20.0648 11.2889C19.6667 10.8959 19.3984 10.7592 18.8185 10.6481C18.5675 10.5968 18.2732 10.537 18.1607 10.5114C17.7885 10.4345 17.7452 9.84493 18.0914 9.59714C18.2905 9.45188 19.3032 9.59714 19.8311 9.84493Z" fill="#665CAC"/>
</svg>
