<svg width="32" height="33" viewBox="0 0 32 33" fill="none" xmlns="http://www.w3.org/2000/svg">
<path d="M20.9166 0.5H11.1C2.13333 0.5 0 2.63333 0 11.5833V21.4C0 30.3665 2.11673 32.5 11.0833 32.5H20.9C29.8667 32.5 32 30.3834 32 21.4166V11.6C32 2.63333 29.8834 0.5 20.9166 0.5ZM25.8333 23.3333H23.5C22.6166 23.3333 22.3499 22.6166 20.7667 21.0333C19.3834 19.7 18.8 19.5333 18.4499 19.5333C17.9667 19.5333 17.8333 19.6665 17.8333 20.3333V22.4333C17.8333 23 17.6499 23.3333 16.1667 23.3333C14.7273 23.2366 13.3316 22.7993 12.0941 22.0576C10.8569 21.3156 9.81347 20.2906 9.04993 19.0665C7.23741 16.8105 5.97619 14.1626 5.36667 11.3333C5.36667 10.9833 5.5 10.6667 6.16667 10.6667H8.5C9.1 10.6667 9.31674 10.9333 9.55007 11.5501C10.6833 14.8834 12.6167 17.7834 13.4 17.7834C13.7 17.7834 13.8333 17.6501 13.8333 16.9V13.4665C13.7333 11.9 12.9 11.7667 12.9 11.2C12.911 11.0505 12.9799 10.9112 13.0918 10.8116C13.2038 10.712 13.3502 10.66 13.5 10.6667H17.1667C17.6667 10.6667 17.8333 10.9166 17.8333 11.5166V16.1499C17.8333 16.6501 18.0499 16.8166 18.2 16.8166C18.5 16.8166 18.7333 16.6501 19.2834 16.1C20.4652 14.6588 21.4309 13.0529 22.1501 11.3333C22.2234 11.1264 22.3626 10.9493 22.5461 10.8288C22.7298 10.7084 22.9478 10.6514 23.1667 10.6667H25.5C26.2 10.6667 26.3501 11.0166 26.2 11.5166C25.351 13.418 24.3005 15.2227 23.0667 16.9C22.8166 17.2834 22.7166 17.4834 23.0667 17.9333C23.3 18.2834 24.1166 18.9665 24.6667 19.6166C25.4667 20.4146 26.1309 21.338 26.6333 22.3499C26.8333 23 26.5 23.3333 25.8333 23.3333Z" fill="#0077FF"/>
</svg>
