<svg width="32" height="33" viewBox="0 0 32 33" fill="none" xmlns="http://www.w3.org/2000/svg">
<g clip-path="url(#clip0_2076_1487)">
<path d="M0.682439 16.3081C0.681695 18.9967 1.38421 21.6219 2.72002 23.9359L0.554688 31.8418L8.64548 29.7204C10.8833 30.9386 13.3906 31.577 15.9385 31.5772H15.9452C24.3564 31.5772 31.2032 24.7327 31.2068 16.3201C31.2085 12.2436 29.6223 8.41027 26.7406 5.5263C23.8594 2.64258 20.0274 1.05362 15.9446 1.05176C7.53243 1.05176 0.686036 7.89579 0.682563 16.3081" fill="url(#paint0_linear_2076_1487)"/>
<path d="M0.136619 16.3035C0.135751 19.0889 0.863441 21.808 2.24688 24.2048L0.00390625 32.3942L8.38481 30.1967C10.694 31.4558 13.294 32.1196 15.9395 32.1206H15.9464C24.6593 32.1206 31.7521 25.03 31.7558 16.3162C31.7573 12.0932 30.1142 8.12208 27.1295 5.13479C24.1444 2.14788 20.1754 0.501736 15.9464 0.5C7.23194 0.5 0.140092 7.58961 0.136619 16.3035ZM5.12775 23.792L4.81482 23.2953C3.49935 21.2036 2.80502 18.7865 2.80601 16.3045C2.80874 9.06174 8.70319 3.16915 15.9513 3.16915C19.4614 3.17064 22.7601 4.53895 25.2412 7.02155C27.7222 9.5044 29.0874 12.8049 29.0866 16.3152C29.0833 23.558 23.1888 29.4513 15.9464 29.4513H15.9411C13.5829 29.4501 11.2701 28.8168 9.25315 27.62L8.77315 27.3353L3.79975 28.6393L5.12775 23.792Z" fill="#5FD669"/>
<path d="M11.9959 9.69662C11.7 9.03888 11.3885 9.02561 11.1071 9.01407C10.8767 9.00415 10.6132 9.0049 10.35 9.0049C10.0866 9.0049 9.65856 9.104 9.29676 9.49904C8.93459 9.89445 7.91406 10.85 7.91406 12.7934C7.91406 14.7369 9.32963 16.6152 9.52696 16.879C9.72454 17.1423 12.2597 21.2582 16.2749 22.8415C19.6118 24.1574 20.2909 23.8957 21.0151 23.8297C21.7394 23.764 23.3523 22.8744 23.6814 21.952C24.0107 21.0297 24.0107 20.2391 23.912 20.0739C23.8132 19.9093 23.5498 19.8105 23.1547 19.613C22.7597 19.4156 20.8175 18.4598 20.4555 18.3279C20.0933 18.1962 19.83 18.1305 19.5665 18.526C19.3031 18.9209 18.5466 19.8105 18.316 20.0739C18.0857 20.338 17.8551 20.3708 17.4602 20.1733C17.0649 19.9751 15.7928 19.5584 14.2834 18.2128C13.1091 17.1658 12.3163 15.8727 12.0858 15.4772C11.8554 15.0823 12.0612 14.8682 12.2592 14.6714C12.4367 14.4944 12.6544 14.2101 12.8521 13.9795C13.0491 13.7488 13.1148 13.5842 13.2465 13.3208C13.3784 13.0571 13.3124 12.8264 13.2138 12.6288C13.1148 12.4313 12.3472 10.4776 11.9959 9.69662Z" fill="#FBFBFB"/>
</g>
<defs>
<linearGradient id="paint0_linear_2076_1487" x1="1533.16" y1="3080.06" x2="1533.16" y2="1.05176" gradientUnits="userSpaceOnUse">
<stop stop-color="#1FAF38"/>
<stop offset="1" stop-color="#60D669"/>
</linearGradient>
<clipPath id="clip0_2076_1487">
<rect width="31.76" height="32" fill="white" transform="translate(0 0.5)"/>
</clipPath>
</defs>
</svg>
